solid OpenSCAD_Model
  facet normal 0.6 -0.8 -9.56049e-017
    outer loop
      vertex -0.0133333 0 -2.96059e-018
      vertex -4 -2.99 -1.29696e-015
      vertex -0.0133333 7.4905e-019 -2.96059e-018
    endloop
  endfacet
  facet normal 0.6 -0.8 -9.56049e-017
    outer loop
      vertex -4 -2.99 5
      vertex -4 -2.99 -1.29696e-015
      vertex -0.0133333 0 -2.96059e-018
    endloop
  endfacet
  facet normal 0.6 -0.8 -9.56049e-017
    outer loop
      vertex -6.84814e-016 0.01 5
      vertex -4 -2.99 5
      vertex -0.0133333 0 5
    endloop
  endfacet
  facet normal 0.6 -0.8 -9.56049e-017
    outer loop
      vertex -0.0133333 0 -2.96059e-018
      vertex -0.0133333 0 5
      vertex -4 -2.99 5
    endloop
  endfacet
  facet normal 2.22045e-016 1.36718e-016 -1
    outer loop
      vertex -0.0133333 7.4905e-019 -2.96059e-018
      vertex -4 -2.99 -1.29696e-015
      vertex -4 2.24715e-016 -8.88178e-016
    endloop
  endfacet
  facet normal -1 -1.22461e-016 -1.36718e-016
    outer loop
      vertex -4 0 5
      vertex -4 -2.99 5
      vertex -4 0.01 5
    endloop
  endfacet
  facet normal -1 -1.22461e-016 -1.36718e-016
    outer loop
      vertex -4 0 -8.88178e-016
      vertex -4 -2.99 5
      vertex -4 0 5
    endloop
  endfacet
  facet normal -1 -1.22461e-016 -1.36718e-016
    outer loop
      vertex -4 -2.99 -1.29696e-015
      vertex -4 -2.99 5
      vertex -4 0 -8.88178e-016
    endloop
  endfacet
  facet normal -1 -1.22461e-016 -1.36718e-016
    outer loop
      vertex -4 -2.99 -1.29696e-015
      vertex -4 0 -8.88178e-016
      vertex -4 2.24715e-016 -8.88178e-016
    endloop
  endfacet
  facet normal -2.22045e-016 -1.36718e-016 1
    outer loop
      vertex -4 0.01 5
      vertex -4 -2.99 5
      vertex -6.84814e-016 0.01 5
    endloop
  endfacet
  facet normal -2.22045e-016 0 1
    outer loop
      vertex -6.84814e-016 0.01 5
      vertex -6.83589e-016 0 5
      vertex -6.83589e-016 2 5
    endloop
  endfacet
  facet normal -2.22045e-016 0 1
    outer loop
      vertex -5.5 0 5
      vertex -4 0 5
      vertex -5.5 2 5
    endloop
  endfacet
  facet normal -2.22045e-016 0 1
    outer loop
      vertex -4 0 5
      vertex -4 0.01 5
      vertex -5.5 2 5
    endloop
  endfacet
  facet normal -2.22045e-016 0 1
    outer loop
      vertex -0.0133333 0 5
      vertex -6.83589e-016 0 5
      vertex -6.84814e-016 0.01 5
    endloop
  endfacet
  facet normal -2.22045e-016 0 1
    outer loop
      vertex -4 0.01 5
      vertex -6.83589e-016 2 5
      vertex -5.5 2 5
    endloop
  endfacet
  facet normal -2.22045e-016 0 1
    outer loop
      vertex -4 0.01 5
      vertex -6.84814e-016 0.01 5
      vertex -6.83589e-016 2 5
    endloop
  endfacet
  facet normal 0 -1 0
    outer loop
      vertex -0.0133333 0 -2.96059e-018
      vertex 0 0 0
      vertex -6.83589e-016 0 5
    endloop
  endfacet
  facet normal 0 -1 0
    outer loop
      vertex -0.0133333 0 5
      vertex -0.0133333 0 -2.96059e-018
      vertex -6.83589e-016 0 5
    endloop
  endfacet
  facet normal 2.22045e-016 0 -1
    outer loop
      vertex -5.5 -2.5 -1.22125e-015
      vertex -8.5 -2.5 -1.88738e-015
      vertex -5.5 0 -1.22125e-015
    endloop
  endfacet
  facet normal 2.22045e-016 0 -1
    outer loop
      vertex -5.5 0 -1.22125e-015
      vertex -8.5 -2.5 -1.88738e-015
      vertex -8.5 0 -1.88738e-015
    endloop
  endfacet
  facet normal 2.22045e-016 0 -1
    outer loop
      vertex -11.2 2 -2.4869e-015
      vertex -13.2 0 -2.93099e-015
      vertex -13.2 5.25 -2.93099e-015
    endloop
  endfacet
  facet normal 2.22045e-016 0 -1
    outer loop
      vertex -11.2 2 -2.4869e-015
      vertex -13.2 5.25 -2.93099e-015
      vertex -11.2 3.25 -2.4869e-015
    endloop
  endfacet
  facet normal 2.22045e-016 0 -1
    outer loop
      vertex 0 2 0
      vertex -4 2.24715e-016 -8.88178e-016
      vertex -5.5 0 -1.22125e-015
    endloop
  endfacet
  facet normal 2.22045e-016 0 -1
    outer loop
      vertex -5.5 5.25 -1.22125e-015
      vertex -8.5 7.75 -1.88738e-015
      vertex -5.5 7.75 -1.22125e-015
    endloop
  endfacet
  facet normal 2.22045e-016 0 -1
    outer loop
      vertex 0 2 0
      vertex -5.5 0 -1.22125e-015
      vertex -8.5 0 -1.88738e-015
    endloop
  endfacet
  facet normal 2.22045e-016 0 -1
    outer loop
      vertex -11.2 3.25 -2.4869e-015
      vertex -13.2 5.25 -2.93099e-015
      vertex -8.5 5.25 -1.88738e-015
    endloop
  endfacet
  facet normal 2.22045e-016 0 -1
    outer loop
      vertex 0 2 0
      vertex -8.5 0 -1.88738e-015
      vertex -11.2 2 -2.4869e-015
    endloop
  endfacet
  facet normal 2.22045e-016 0 -1
    outer loop
      vertex -8.5 5.25 -1.88738e-015
      vertex -8.5 7.75 -1.88738e-015
      vertex -5.5 5.25 -1.22125e-015
    endloop
  endfacet
  facet normal 2.22045e-016 0 -1
    outer loop
      vertex -8.5 0 -1.88738e-015
      vertex -13.2 0 -2.93099e-015
      vertex -11.2 2 -2.4869e-015
    endloop
  endfacet
  facet normal 2.22045e-016 0 -1
    outer loop
      vertex -4 2.24715e-016 -8.88178e-016
      vertex 0 2 0
      vertex -0.0133333 7.4905e-019 -2.96059e-018
    endloop
  endfacet
  facet normal 2.22045e-016 0 -1
    outer loop
      vertex -0.0133333 7.4905e-019 -2.96059e-018
      vertex 0 0 0
      vertex -0.0133333 0 -2.96059e-018
    endloop
  endfacet
  facet normal 2.22045e-016 0 -1
    outer loop
      vertex 0 2 0
      vertex 0 0 0
      vertex -0.0133333 7.4905e-019 -2.96059e-018
    endloop
  endfacet
  facet normal 2.22045e-016 0 -1
    outer loop
      vertex -11.2 3.25 -2.4869e-015
      vertex -8.5 5.25 -1.88738e-015
      vertex -5.5 5.25 -1.22125e-015
    endloop
  endfacet
  facet normal 2.22045e-016 0 -1
    outer loop
      vertex -11.2 3.25 -2.4869e-015
      vertex -5.5 5.25 -1.22125e-015
      vertex -4 5.25 -8.88178e-016
    endloop
  endfacet
  facet normal 2.22045e-016 0 -1
    outer loop
      vertex -5.5 0 -1.22125e-015
      vertex -4 2.24715e-016 -8.88178e-016
      vertex -4 0 -8.88178e-016
    endloop
  endfacet
  facet normal 2.22045e-016 0 -1
    outer loop
      vertex -11.2 3.25 -2.4869e-015
      vertex -4 5.25 -8.88178e-016
      vertex -0.0133333 5.25 -2.96059e-018
    endloop
  endfacet
  facet normal 2.22045e-016 0 -1
    outer loop
      vertex -11.2 3.25 -2.4869e-015
      vertex -0.0133333 5.25 -2.96059e-018
      vertex 0 5.25 0
    endloop
  endfacet
  facet normal 2.22045e-016 0 -1
    outer loop
      vertex -11.2 3.25 -2.4869e-015
      vertex 0 5.25 0
      vertex 0 3.25 0
    endloop
  endfacet
  facet normal 0 -1 0
    outer loop
      vertex -5.5 0 -1.22125e-015
      vertex -4 0 -8.88178e-016
      vertex -4 0 5
    endloop
  endfacet
  facet normal 0 -1 0
    outer loop
      vertex -5.5 0 5
      vertex -5.5 0 -1.22125e-015
      vertex -4 0 5
    endloop
  endfacet
  facet normal 1 0 1.36718e-016
    outer loop
      vertex -5.5 -2.5 10
      vertex -5.5 -2.5 -1.22125e-015
      vertex -5.5 0 -1.22125e-015
    endloop
  endfacet
  facet normal 1 0 1.36718e-016
    outer loop
      vertex -5.5 2 5
      vertex -5.5 -2.5 10
      vertex -5.5 0 5
    endloop
  endfacet
  facet normal 1 0 1.36718e-016
    outer loop
      vertex -5.5 0 5
      vertex -5.5 -2.5 10
      vertex -5.5 0 -1.22125e-015
    endloop
  endfacet
  facet normal 1 0 1.36718e-016
    outer loop
      vertex -5.5 2 10
      vertex -5.5 -2.5 10
      vertex -5.5 2 5
    endloop
  endfacet
  facet normal 0 1 0
    outer loop
      vertex 0 2 0
      vertex -11.2 2 -2.4869e-015
      vertex -6.83589e-016 2 5
    endloop
  endfacet
  facet normal 0 1 0
    outer loop
      vertex -8.5 2 5
      vertex -11.2 2 -2.4869e-015
      vertex -11.2 2 5
    endloop
  endfacet
  facet normal 0 1 0
    outer loop
      vertex -6.83589e-016 2 5
      vertex -11.2 2 -2.4869e-015
      vertex -5.5 2 5
    endloop
  endfacet
  facet normal 0 1 0
    outer loop
      vertex -8.5 2 5
      vertex -8.5 2 10
      vertex -5.5 2 5
    endloop
  endfacet
  facet normal 0 1 0
    outer loop
      vertex -8.5 2 5
      vertex -5.5 2 5
      vertex -11.2 2 -2.4869e-015
    endloop
  endfacet
  facet normal 0 1 0
    outer loop
      vertex -5.5 2 5
      vertex -8.5 2 10
      vertex -5.5 2 10
    endloop
  endfacet
  facet normal 1 0 1.36718e-016
    outer loop
      vertex -6.83589e-016 0 5
      vertex 0 0 0
      vertex 0 2 0
    endloop
  endfacet
  facet normal 1 0 1.36718e-016
    outer loop
      vertex -6.83589e-016 2 5
      vertex -6.83589e-016 0 5
      vertex 0 2 0
    endloop
  endfacet
  facet normal 1 0 1.36718e-016
    outer loop
      vertex -11.2 3.25 -2.4869e-015
      vertex -11.2 3.25 5
      vertex -11.2 2 5
    endloop
  endfacet
  facet normal 1 0 1.36718e-016
    outer loop
      vertex -11.2 2 -2.4869e-015
      vertex -11.2 3.25 -2.4869e-015
      vertex -11.2 2 5
    endloop
  endfacet
  facet normal 0 -1 0
    outer loop
      vertex -8.5 3.25 10
      vertex -5.5 3.25 5
      vertex -5.5 3.25 10
    endloop
  endfacet
  facet normal 0 -1 0
    outer loop
      vertex -8.5 3.25 5
      vertex -5.5 3.25 5
      vertex -8.5 3.25 10
    endloop
  endfacet
  facet normal 0 -1 0
    outer loop
      vertex -6.83589e-016 3.25 5
      vertex -5.5 3.25 5
      vertex -11.2 3.25 -2.4869e-015
    endloop
  endfacet
  facet normal 0 -1 0
    outer loop
      vertex -11.2 3.25 -2.4869e-015
      vertex -5.5 3.25 5
      vertex -8.5 3.25 5
    endloop
  endfacet
  facet normal 0 -1 0
    outer loop
      vertex -11.2 3.25 -2.4869e-015
      vertex -8.5 3.25 5
      vertex -11.2 3.25 5
    endloop
  endfacet
  facet normal 0 -1 0
    outer loop
      vertex 0 3.25 0
      vertex -6.83589e-016 3.25 5
      vertex -11.2 3.25 -2.4869e-015
    endloop
  endfacet
  facet normal 1 0 1.36718e-016
    outer loop
      vertex 0 5.25 0
      vertex -6.83589e-016 5.25 5
      vertex -6.83589e-016 3.25 5
    endloop
  endfacet
  facet normal 1 0 1.36718e-016
    outer loop
      vertex 0 3.25 0
      vertex 0 5.25 0
      vertex -6.83589e-016 3.25 5
    endloop
  endfacet
  facet normal 0 1 0
    outer loop
      vertex -0.0133333 5.25 5
      vertex -6.83589e-016 5.25 5
      vertex -0.0133333 5.25 -2.96059e-018
    endloop
  endfacet
  facet normal 0 1 0
    outer loop
      vertex -0.0133333 5.25 -2.96059e-018
      vertex -6.83589e-016 5.25 5
      vertex 0 5.25 0
    endloop
  endfacet
  facet normal 0.6 0.8 -9.56049e-017
    outer loop
      vertex -6.84814e-016 5.24 5
      vertex -0.0133333 5.25 5
      vertex -4 8.24 5
    endloop
  endfacet
  facet normal 0.6 0.8 -9.56049e-017
    outer loop
      vertex -0.0133333 5.25 -2.96059e-018
      vertex -4 8.24 -1.29696e-015
      vertex -4 8.24 5
    endloop
  endfacet
  facet normal 0.6 0.8 -9.56049e-017
    outer loop
      vertex -0.0133333 5.25 -2.96059e-018
      vertex -4 8.24 5
      vertex -0.0133333 5.25 5
    endloop
  endfacet
  facet normal 2.22045e-016 -1.36718e-016 -1
    outer loop
      vertex -0.0133333 5.25 -2.96059e-018
      vertex -4 5.25 -8.88178e-016
      vertex -4 8.24 -1.29696e-015
    endloop
  endfacet
  facet normal -1 1.22461e-016 -1.36718e-016
    outer loop
      vertex -4 8.24 5
      vertex -4 5.25 5
      vertex -4 5.24 5
    endloop
  endfacet
  facet normal -1 1.22461e-016 -1.36718e-016
    outer loop
      vertex -4 5.25 -8.88178e-016
      vertex -4 5.25 5
      vertex -4 8.24 5
    endloop
  endfacet
  facet normal -1 1.22461e-016 -1.36718e-016
    outer loop
      vertex -4 5.25 -8.88178e-016
      vertex -4 8.24 5
      vertex -4 8.24 -1.29696e-015
    endloop
  endfacet
  facet normal 0 1 0
    outer loop
      vertex -5.5 5.25 5
      vertex -4 5.25 5
      vertex -5.5 5.25 -1.22125e-015
    endloop
  endfacet
  facet normal 0 1 0
    outer loop
      vertex -5.5 5.25 -1.22125e-015
      vertex -4 5.25 5
      vertex -4 5.25 -8.88178e-016
    endloop
  endfacet
  facet normal 1 0 1.36718e-016
    outer loop
      vertex -5.5 7.75 -1.22125e-015
      vertex -5.5 7.75 10
      vertex -5.5 3.25 10
    endloop
  endfacet
  facet normal 1 0 1.36718e-016
    outer loop
      vertex -5.5 5.25 5
      vertex -5.5 7.75 -1.22125e-015
      vertex -5.5 3.25 10
    endloop
  endfacet
  facet normal 1 0 1.36718e-016
    outer loop
      vertex -5.5 3.25 5
      vertex -5.5 5.25 5
      vertex -5.5 3.25 10
    endloop
  endfacet
  facet normal 1 0 1.36718e-016
    outer loop
      vertex -5.5 5.25 5
      vertex -5.5 5.25 -1.22125e-015
      vertex -5.5 7.75 -1.22125e-015
    endloop
  endfacet
  facet normal 0 1 0
    outer loop
      vertex -8.5 7.75 10
      vertex -5.5 7.75 10
      vertex -8.5 7.75 -1.88738e-015
    endloop
  endfacet
  facet normal 0 1 0
    outer loop
      vertex -8.5 7.75 -1.88738e-015
      vertex -5.5 7.75 10
      vertex -5.5 7.75 -1.22125e-015
    endloop
  endfacet
  facet normal -1 0 -1.36718e-016
    outer loop
      vertex -8.5 3.25 5
      vertex -8.5 3.25 10
      vertex -8.5 5.25 5
    endloop
  endfacet
  facet normal -1 0 -1.36718e-016
    outer loop
      vertex -8.5 5.25 5
      vertex -8.5 3.25 10
      vertex -8.5 7.75 10
    endloop
  endfacet
  facet normal -1 0 -1.36718e-016
    outer loop
      vertex -8.5 5.25 5
      vertex -8.5 7.75 10
      vertex -8.5 7.75 -1.88738e-015
    endloop
  endfacet
  facet normal -1 0 -1.36718e-016
    outer loop
      vertex -8.5 5.25 5
      vertex -8.5 7.75 -1.88738e-015
      vertex -8.5 5.25 -1.88738e-015
    endloop
  endfacet
  facet normal 0 1 0
    outer loop
      vertex -13.2 5.25 5
      vertex -8.5 5.25 5
      vertex -13.2 5.25 -2.93099e-015
    endloop
  endfacet
  facet normal 0 1 0
    outer loop
      vertex -13.2 5.25 -2.93099e-015
      vertex -8.5 5.25 5
      vertex -8.5 5.25 -1.88738e-015
    endloop
  endfacet
  facet normal -1 0 -1.36718e-016
    outer loop
      vertex -13.2 0 -2.93099e-015
      vertex -13.2 0 5
      vertex -13.2 5.25 -2.93099e-015
    endloop
  endfacet
  facet normal -1 0 -1.36718e-016
    outer loop
      vertex -13.2 5.25 -2.93099e-015
      vertex -13.2 0 5
      vertex -13.2 5.25 5
    endloop
  endfacet
  facet normal 0 -1 0
    outer loop
      vertex -13.2 0 -2.93099e-015
      vertex -8.5 0 -1.88738e-015
      vertex -8.5 0 5
    endloop
  endfacet
  facet normal 0 -1 0
    outer loop
      vertex -13.2 0 5
      vertex -13.2 0 -2.93099e-015
      vertex -8.5 0 5
    endloop
  endfacet
  facet normal -1 0 -1.36718e-016
    outer loop
      vertex -8.5 -2.5 -1.88738e-015
      vertex -8.5 -2.5 10
      vertex -8.5 0 -1.88738e-015
    endloop
  endfacet
  facet normal -1 0 -1.36718e-016
    outer loop
      vertex -8.5 0 5
      vertex -8.5 -2.5 10
      vertex -8.5 2 10
    endloop
  endfacet
  facet normal -1 0 -1.36718e-016
    outer loop
      vertex -8.5 0 -1.88738e-015
      vertex -8.5 -2.5 10
      vertex -8.5 0 5
    endloop
  endfacet
  facet normal -1 0 -1.36718e-016
    outer loop
      vertex -8.5 0 5
      vertex -8.5 2 10
      vertex -8.5 2 5
    endloop
  endfacet
  facet normal 0 -1 0
    outer loop
      vertex -8.5 -2.5 -1.88738e-015
      vertex -5.5 -2.5 -1.22125e-015
      vertex -5.5 -2.5 10
    endloop
  endfacet
  facet normal 0 -1 0
    outer loop
      vertex -8.5 -2.5 10
      vertex -8.5 -2.5 -1.88738e-015
      vertex -5.5 -2.5 10
    endloop
  endfacet
  facet normal -2.22045e-016 0 1
    outer loop
      vertex -8.5 -2.5 10
      vertex -5.5 -2.5 10
      vertex -5.5 2 10
    endloop
  endfacet
  facet normal -2.22045e-016 0 1
    outer loop
      vertex -8.5 2 10
      vertex -8.5 -2.5 10
      vertex -5.5 2 10
    endloop
  endfacet
  facet normal -2.22045e-016 0 1
    outer loop
      vertex -13.2 0 5
      vertex -8.5 0 5
      vertex -8.5 2 5
    endloop
  endfacet
  facet normal -2.22045e-016 0 1
    outer loop
      vertex -11.2 3.25 5
      vertex -13.2 0 5
      vertex -11.2 2 5
    endloop
  endfacet
  facet normal -2.22045e-016 0 1
    outer loop
      vertex -11.2 2 5
      vertex -13.2 0 5
      vertex -8.5 2 5
    endloop
  endfacet
  facet normal -2.22045e-016 0 1
    outer loop
      vertex -13.2 5.25 5
      vertex -13.2 0 5
      vertex -11.2 3.25 5
    endloop
  endfacet
  facet normal -2.22045e-016 0 1
    outer loop
      vertex -8.5 5.25 5
      vertex -11.2 3.25 5
      vertex -8.5 3.25 5
    endloop
  endfacet
  facet normal -2.22045e-016 0 1
    outer loop
      vertex -13.2 5.25 5
      vertex -11.2 3.25 5
      vertex -8.5 5.25 5
    endloop
  endfacet
  facet normal -2.22045e-016 0 1
    outer loop
      vertex -4 5.24 5
      vertex -5.5 3.25 5
      vertex -6.84814e-016 5.24 5
    endloop
  endfacet
  facet normal -2.22045e-016 0 1
    outer loop
      vertex -6.83589e-016 5.25 5
      vertex -0.0133333 5.25 5
      vertex -6.84814e-016 5.24 5
    endloop
  endfacet
  facet normal -2.22045e-016 0 1
    outer loop
      vertex -6.83589e-016 3.25 5
      vertex -6.83589e-016 5.25 5
      vertex -6.84814e-016 5.24 5
    endloop
  endfacet
  facet normal -2.22045e-016 0 1
    outer loop
      vertex -4 5.25 5
      vertex -5.5 5.25 5
      vertex -4 5.24 5
    endloop
  endfacet
  facet normal -2.22045e-016 0 1
    outer loop
      vertex -5.5 5.25 5
      vertex -5.5 3.25 5
      vertex -4 5.24 5
    endloop
  endfacet
  facet normal -2.22045e-016 0 1
    outer loop
      vertex -5.5 3.25 5
      vertex -6.83589e-016 3.25 5
      vertex -6.84814e-016 5.24 5
    endloop
  endfacet
  facet normal -2.22045e-016 0 1
    outer loop
      vertex -5.5 7.75 10
      vertex -8.5 7.75 10
      vertex -8.5 3.25 10
    endloop
  endfacet
  facet normal -2.22045e-016 0 1
    outer loop
      vertex -5.5 3.25 10
      vertex -5.5 7.75 10
      vertex -8.5 3.25 10
    endloop
  endfacet
  facet normal -2.22045e-016 1.36718e-016 1
    outer loop
      vertex -4 5.24 5
      vertex -6.84814e-016 5.24 5
      vertex -4 8.24 5
    endloop
  endfacet
endsolid OpenSCAD_Model
