solid model
facet normal 1.80806676816652e-018 5.76944849538646e-019 -1.0
outer loop
vertex 9.8 3.4 0.0
vertex 6.8 3.4 0.0
vertex 6.8 4.8 0.0
endloop
endfacet
facet normal 1.80806676816652e-018 5.76944849538646e-019 -1.0
outer loop
vertex -2.23659154221714 1.24242106098393 0.0
vertex -2.23659154221714 -1.24217916461237 0.0
vertex -2.40014345482012 0.000120948185780434 0.0
endloop
endfacet
facet normal 1.80806676816652e-018 5.76944849538646e-019 -1.0
outer loop
vertex -2.23659154221714 -1.24217916461237 0.0
vertex -2.23659154221714 1.24242106098393 0.0
vertex -1.75708159696978 2.40006047409289 0.0
endloop
endfacet
facet normal 1.80806676816652e-018 5.76944849538646e-019 -1.0
outer loop
vertex -2.23659154221714 -1.24217916461237 0.0
vertex -1.75708159696978 2.40006047409289 0.0
vertex -1.75708159696978 -2.39981857772133 0.0
endloop
endfacet
facet normal 1.80806676816652e-018 5.76944849538646e-019 -1.0
outer loop
vertex -1.75708159696978 -2.39981857772133 0.0
vertex -1.75708159696978 2.40006047409289 0.0
vertex -0.994291429418994 3.39414797459887 0.0
endloop
endfacet
facet normal 1.80806676816652e-018 5.76944849538646e-019 -1.0
outer loop
vertex -1.75708159696978 -2.39981857772133 0.0
vertex -0.994291429418994 3.39414797459887 0.0
vertex -0.994291429418993 -3.39390607822731 0.0
endloop
endfacet
facet normal 1.80806676816652e-018 5.76944849538646e-019 -1.0
outer loop
vertex -0.994291429418993 -3.39390607822731 0.0
vertex -0.994291429418994 3.39414797459887 0.0
vertex -0.600264403005904 0.000120948185781917 7.04991620636974e-016
endloop
endfacet
facet normal 1.80806676816652e-018 5.76944849538646e-019 -1.0
outer loop
vertex -0.600264403005904 0.000120948185781917 7.04991620636974e-016
vertex -0.994291429418994 3.39414797459887 0.0
vertex -0.498041881873109 0.776578083493343 7.04991620636974e-016
endloop
endfacet
facet normal 1.80806676816652e-018 5.76944849538646e-019 -1.0
outer loop
vertex -0.498041881873109 0.776578083493343 7.04991620636974e-016
vertex -0.994291429418994 3.39414797459887 0.0
vertex -0.000203928913012291 4.15693814214966 0.0
endloop
endfacet
facet normal 1.80806676816652e-018 5.76944849538646e-019 -1.0
outer loop
vertex -0.498041881873109 0.776578083493343 7.04991620636974e-016
vertex -0.000203928913012291 4.15693814214966 0.0
vertex -0.198340614359222 1.50012094818578 7.04991620636974e-016
endloop
endfacet
facet normal 1.80806676816652e-018 5.76944849538646e-019 -1.0
outer loop
vertex -0.198340614359222 1.50012094818578 7.04991620636974e-016
vertex -0.000203928913012291 4.15693814214966 0.0
vertex 0.278415253434453 2.12144129174542 7.04991620636974e-016
endloop
endfacet
facet normal 1.80806676816652e-018 5.76944849538646e-019 -1.0
outer loop
vertex 0.278415253434453 2.12144129174542 7.04991620636974e-016
vertex -0.000203928913012291 4.15693814214966 0.0
vertex 1.15743548419595 4.63644808739702 0.0
endloop
endfacet
facet normal 1.80806676816652e-018 5.76944849538646e-019 -1.0
outer loop
vertex 0.278415253434453 2.12144129174542 7.04991620636974e-016
vertex 1.15743548419595 4.63644808739702 0.0
vertex 0.899735596994095 2.5981971595391 7.04991620636974e-016
endloop
endfacet
facet normal 1.80806676816652e-018 5.76944849538646e-019 -1.0
outer loop
vertex 0.899735596994095 2.5981971595391 7.04991620636974e-016
vertex 1.15743548419595 4.63644808739702 0.0
vertex 1.62327846168653 2.89789842705299 7.04991620636974e-016
endloop
endfacet
facet normal 1.80806676816652e-018 5.76944849538646e-019 -1.0
outer loop
vertex 1.62327846168653 2.89789842705299 7.04991620636974e-016
vertex 1.15743548419595 4.63644808739702 0.0
vertex 2.3997355969941 4.8 0.0
endloop
endfacet
facet normal 1.80806676816652e-018 5.76944849538646e-019 -1.0
outer loop
vertex 1.62327846168653 2.89789842705299 7.04991620636974e-016
vertex 2.3997355969941 4.8 0.0
vertex 2.3997355969941 3.00012094818578 7.04991620636974e-016
endloop
endfacet
facet normal 1.80806676816652e-018 5.76944849538646e-019 -1.0
outer loop
vertex 2.3997355969941 3.00012094818578 7.04991620636974e-016
vertex 2.3997355969941 4.8 0.0
vertex 2.43659012932357 2.69054824500775 7.04991620636974e-016
endloop
endfacet
facet normal 1.80806676816652e-018 5.76944849538646e-019 -1.0
outer loop
vertex 2.43659012932357 2.69054824500775 7.04991620636974e-016
vertex 2.3997355969941 4.8 0.0
vertex 4.8 4.8 0.0
endloop
endfacet
facet normal 1.80806676816652e-018 5.76944849538646e-019 -1.0
outer loop
vertex 2.43659012932357 2.69054824500775 7.04991620636974e-016
vertex 4.8 4.8 0.0
vertex 2.48521726393887 2.54208957380163 0.0
endloop
endfacet
facet normal 1.80806676816652e-018 5.76944849538646e-019 -1.0
outer loop
vertex 2.48521726393887 2.54208957380163 0.0
vertex 4.8 4.8 0.0
vertex 2.55296495402842 2.40132442980386 0.0
endloop
endfacet
facet normal 1.80806676816652e-018 5.76944849538646e-019 -1.0
outer loop
vertex 2.55296495402842 2.40132442980386 0.0
vertex 4.8 4.8 0.0
vertex 2.63865398339493 2.27070297091058 0.0
endloop
endfacet
facet normal 1.80806676816652e-018 5.76944849538646e-019 -1.0
outer loop
vertex 2.63865398339493 2.27070297091058 0.0
vertex 4.8 4.8 0.0
vertex 2.74079284891517 2.15249879404944 0.0
endloop
endfacet
facet normal 1.80806676816652e-018 5.76944849538646e-019 -1.0
outer loop
vertex 2.74079284891517 2.15249879404944 0.0
vertex 4.8 4.8 0.0
vertex 2.85760372164121 2.04876936095467 0.0
endloop
endfacet
facet normal 1.80806676816652e-018 5.76944849538646e-019 -1.0
outer loop
vertex 2.85760372164121 2.04876936095467 0.0
vertex 4.8 4.8 0.0
vertex 2.98705339168861 1.96132018599114 0.0
endloop
endfacet
facet normal 1.80806676816652e-018 5.76944849538646e-019 -1.0
outer loop
vertex 2.98705339168861 1.96132018599114 0.0
vertex 4.8 4.8 0.0
vertex 3.12688865828471 1.89167340937384 0.0
endloop
endfacet
facet normal 1.80806676816652e-018 5.76944849538646e-019 -1.0
outer loop
vertex 3.12688865828471 1.89167340937384 0.0
vertex 4.8 4.8 0.0
vertex 3.2746755489781 1.84104130279746 0.0
endloop
endfacet
facet normal 1.80806676816652e-018 5.76944849538646e-019 -1.0
outer loop
vertex 3.2746755489781 1.84104130279746 0.0
vertex 4.8 4.8 0.0
vertex 3.42784168535965 1.81030516863702 7.04991620636974e-016
endloop
endfacet
facet normal 1.80806676816652e-018 5.76944849538646e-019 -1.0
outer loop
vertex 3.42784168535965 1.81030516863702 7.04991620636974e-016
vertex 4.8 4.8 0.0
vertex 4.8 3.4 0.0
endloop
endfacet
facet normal 1.80806676816652e-018 5.76944849538646e-019 -1.0
outer loop
vertex 3.42784168535965 1.81030516863702 7.04991620636974e-016
vertex 4.8 3.4 0.0
vertex 9.8 1.8 0.0
endloop
endfacet
facet normal 1.80806676816652e-018 5.76944849538646e-019 -1.0
outer loop
vertex 9.8 1.8 0.0
vertex 4.8 3.4 0.0
vertex 6.8 3.4 0.0
endloop
endfacet
facet normal 1.80806676816652e-018 5.76944849538646e-019 -1.0
outer loop
vertex 9.8 1.8 0.0
vertex 6.8 3.4 0.0
vertex 9.8 3.4 0.0
endloop
endfacet
facet normal 1.80806676816652e-018 5.76944849538646e-019 -1.0
outer loop
vertex 6.8 -1.6 0.0
vertex 4.8 -3.4 0.0
vertex 4.8 -1.6 0.0
endloop
endfacet
facet normal 1.80806676816652e-018 5.76944849538646e-019 -1.0
outer loop
vertex 4.8 -3.4 0.0
vertex 6.8 -1.6 0.0
vertex 6.8 -3.4 0.0
endloop
endfacet
facet normal 1.80806676816652e-018 5.76944849538646e-019 -1.0
outer loop
vertex 6.8 -3.4 0.0
vertex 6.8 -1.6 0.0
vertex 9.8 -1.6 0.0
endloop
endfacet
facet normal 1.80806676816652e-018 5.76944849538646e-019 -1.0
outer loop
vertex 6.8 -3.4 0.0
vertex 9.8 -1.6 0.0
vertex 6.8 -4.79975810362844 0.0
endloop
endfacet
facet normal 1.80806676816652e-018 5.76944849538646e-019 -1.0
outer loop
vertex 6.8 -4.79975810362844 0.0
vertex 9.8 -1.6 0.0
vertex 9.8 -3.4 0.0
endloop
endfacet
facet normal 1.80806676816652e-018 5.76944849538646e-019 -1.0
outer loop
vertex 2.39213851998051 -2.6534889258198 0.0
vertex 2.3997355969941 -2.99987905181422 7.04991620636974e-016
vertex 2.38337637444112 -2.826959471508 7.04991620636974e-016
endloop
endfacet
facet normal 1.80806676816652e-018 5.76944849538646e-019 -1.0
outer loop
vertex 2.3997355969941 -2.99987905181422 7.04991620636974e-016
vertex 2.39213851998051 -2.6534889258198 0.0
vertex 2.42583865538232 -2.4830978864729 0.0
endloop
endfacet
facet normal 1.80806676816652e-018 5.76944849538646e-019 -1.0
outer loop
vertex 2.3997355969941 -2.99987905181422 7.04991620636974e-016
vertex 2.42583865538232 -2.4830978864729 0.0
vertex 2.3997355969941 -4.79975810362844 0.0
endloop
endfacet
facet normal 1.80806676816652e-018 5.76944849538646e-019 -1.0
outer loop
vertex 2.3997355969941 -4.79975810362844 0.0
vertex 2.42583865538232 -2.4830978864729 0.0
vertex 4.8 -4.79975810362844 0.0
endloop
endfacet
facet normal 1.80806676816652e-018 5.76944849538646e-019 -1.0
outer loop
vertex 4.8 -4.79975810362844 0.0
vertex 2.42583865538232 -2.4830978864729 0.0
vertex 2.48377148864344 -2.31935237585916 0.0
endloop
endfacet
facet normal 1.80806676816652e-018 5.76944849538646e-019 -1.0
outer loop
vertex 4.8 -4.79975810362844 0.0
vertex 2.48377148864344 -2.31935237585916 0.0
vertex 2.56472457466452 -2.16567933567487 0.0
endloop
endfacet
facet normal 1.80806676816652e-018 5.76944849538646e-019 -1.0
outer loop
vertex 4.8 -4.79975810362844 0.0
vertex 2.56472457466452 -2.16567933567487 0.0
vertex 2.66700368986109 -2.02529490630173 0.0
endloop
endfacet
facet normal 1.80806676816652e-018 5.76944849538646e-019 -1.0
outer loop
vertex 4.8 -4.79975810362844 0.0
vertex 2.66700368986109 -2.02529490630173 0.0
vertex 2.78846828965752 -1.90113711793504 0.0
endloop
endfacet
facet normal 1.80806676816652e-018 5.76944849538646e-019 -1.0
outer loop
vertex 4.8 -4.79975810362844 0.0
vertex 2.78846828965752 -1.90113711793504 0.0
vertex 2.92657630679283 -1.79580440213045 0.0
endloop
endfacet
facet normal 1.80806676816652e-018 5.76944849538646e-019 -1.0
outer loop
vertex 4.8 -4.79975810362844 0.0
vertex 2.92657630679283 -1.79580440213045 0.0
vertex 3.07843735287871 -1.71150121062788 0.0
endloop
endfacet
facet normal 1.80806676816652e-018 5.76944849538646e-019 -1.0
outer loop
vertex 4.8 -4.79975810362844 0.0
vertex 3.07843735287871 -1.71150121062788 0.0
vertex 3.2408732097831 -1.64999187956703 0.0
endloop
endfacet
facet normal 1.80806676816652e-018 5.76944849538646e-019 -1.0
outer loop
vertex 4.8 -4.79975810362844 0.0
vertex 3.2408732097831 -1.64999187956703 0.0
vertex 3.41048434484759 -1.61256370464557 7.04991620636974e-016
endloop
endfacet
facet normal 1.80806676816652e-018 5.76944849538646e-019 -1.0
outer loop
vertex 4.8 -4.79975810362844 0.0
vertex 3.41048434484759 -1.61256370464557 7.04991620636974e-016
vertex 4.8 -1.6 0.0
endloop
endfacet
facet normal 1.80806676816652e-018 5.76944849538646e-019 -1.0
outer loop
vertex 4.8 -4.79975810362844 0.0
vertex 4.8 -1.6 0.0
vertex 4.8 -3.4 0.0
endloop
endfacet
facet normal 1.80806676816652e-018 5.76944849538646e-019 -1.0
outer loop
vertex -0.994291429418993 -3.39390607822731 0.0
vertex -0.498041881873108 -0.776336187121782 7.04991620636974e-016
vertex -0.000203928913012291 -4.15669624577809 0.0
endloop
endfacet
facet normal 1.80806676816652e-018 5.76944849538646e-019 -1.0
outer loop
vertex -0.498041881873108 -0.776336187121782 7.04991620636974e-016
vertex -0.994291429418993 -3.39390607822731 0.0
vertex -0.600264403005904 0.000120948185781917 7.04991620636974e-016
endloop
endfacet
facet normal 1.80806676816652e-018 5.76944849538646e-019 -1.0
outer loop
vertex -0.000203928913012291 -4.15669624577809 0.0
vertex -0.498041881873108 -0.776336187121782 7.04991620636974e-016
vertex -0.198340614359221 -1.49987905181422 7.04991620636974e-016
endloop
endfacet
facet normal 1.80806676816652e-018 5.76944849538646e-019 -1.0
outer loop
vertex -0.000203928913012291 -4.15669624577809 0.0
vertex -0.198340614359221 -1.49987905181422 7.04991620636974e-016
vertex 0.278415253434454 -2.12119939537386 7.04991620636974e-016
endloop
endfacet
facet normal 1.80806676816652e-018 5.76944849538646e-019 -1.0
outer loop
vertex -0.000203928913012291 -4.15669624577809 0.0
vertex 0.278415253434454 -2.12119939537386 7.04991620636974e-016
vertex 1.15743548419595 -4.63620619102546 0.0
endloop
endfacet
facet normal 1.80806676816652e-018 5.76944849538646e-019 -1.0
outer loop
vertex 1.15743548419595 -4.63620619102546 0.0
vertex 0.278415253434454 -2.12119939537386 7.04991620636974e-016
vertex 0.899735596994097 -2.59795526316753 7.04991620636974e-016
endloop
endfacet
facet normal 1.80806676816652e-018 5.76944849538646e-019 -1.0
outer loop
vertex 1.15743548419595 -4.63620619102546 0.0
vertex 0.899735596994097 -2.59795526316753 7.04991620636974e-016
vertex 1.62327846168653 -2.89765653068142 7.04991620636974e-016
endloop
endfacet
facet normal 1.80806676816652e-018 5.76944849538646e-019 -1.0
outer loop
vertex 1.15743548419595 -4.63620619102546 0.0
vertex 1.62327846168653 -2.89765653068142 7.04991620636974e-016
vertex 2.3997355969941 -4.79975810362844 0.0
endloop
endfacet
facet normal 1.80806676816652e-018 5.76944849538646e-019 -1.0
outer loop
vertex 2.3997355969941 -4.79975810362844 0.0
vertex 1.62327846168653 -2.89765653068142 7.04991620636974e-016
vertex 2.3997355969941 -2.99987905181422 7.04991620636974e-016
endloop
endfacet
facet normal 3.37430431948678e-018 1.75007607137391e-019 1.0
outer loop
vertex -0.994291429418993 -3.39390607822731 5.2
vertex -0.498041881873108 -0.776336187121782 5.2
vertex -0.600264403005904 0.000120948185781884 5.2
endloop
endfacet
facet normal 3.37430431948678e-018 1.75007607137391e-019 1.0
outer loop
vertex -0.498041881873108 -0.776336187121782 5.2
vertex -0.994291429418993 -3.39390607822731 5.2
vertex -0.000203928913012291 -4.15669624577809 5.2
endloop
endfacet
facet normal 3.37430431948678e-018 1.75007607137391e-019 1.0
outer loop
vertex -0.498041881873108 -0.776336187121782 5.2
vertex -0.000203928913012291 -4.15669624577809 5.2
vertex -0.198340614359219 -1.49987905181422 5.2
endloop
endfacet
facet normal 3.37430431948678e-018 1.75007607137391e-019 1.0
outer loop
vertex -0.198340614359219 -1.49987905181422 5.2
vertex -0.000203928913012291 -4.15669624577809 5.2
vertex 0.278415253434454 -2.12119939537386 5.2
endloop
endfacet
facet normal 3.37430431948678e-018 1.75007607137391e-019 1.0
outer loop
vertex 0.278415253434454 -2.12119939537386 5.2
vertex -0.000203928913012291 -4.15669624577809 5.2
vertex 1.15743548419595 -4.63620619102546 5.2
endloop
endfacet
facet normal 3.37430431948678e-018 1.75007607137391e-019 1.0
outer loop
vertex 0.278415253434454 -2.12119939537386 5.2
vertex 1.15743548419595 -4.63620619102546 5.2
vertex 0.899735596994097 -2.59795526316753 5.2
endloop
endfacet
facet normal 3.37430431948678e-018 1.75007607137391e-019 1.0
outer loop
vertex 0.899735596994097 -2.59795526316753 5.2
vertex 1.15743548419595 -4.63620619102546 5.2
vertex 1.62327846168653 -2.89765653068142 5.2
endloop
endfacet
facet normal 3.37430431948678e-018 1.75007607137391e-019 1.0
outer loop
vertex 1.62327846168653 -2.89765653068142 5.2
vertex 1.15743548419595 -4.63620619102546 5.2
vertex 2.3997355969941 -4.79975810362844 5.2
endloop
endfacet
facet normal 3.37430431948678e-018 1.75007607137391e-019 1.0
outer loop
vertex 1.62327846168653 -2.89765653068142 5.2
vertex 2.3997355969941 -4.79975810362844 5.2
vertex 2.3997355969941 -2.99987905181422 5.2
endloop
endfacet
facet normal 3.37430431948678e-018 1.75007607137391e-019 1.0
outer loop
vertex 9.8 -3.4 5.2
vertex 6.8 -3.4 5.2
vertex 6.8 -4.79975810362844 5.2
endloop
endfacet
facet normal 3.37430431948678e-018 1.75007607137391e-019 1.0
outer loop
vertex 6.8 -3.4 5.2
vertex 9.8 -3.4 5.2
vertex 6.8 -1.6 5.2
endloop
endfacet
facet normal 3.37430431948678e-018 1.75007607137391e-019 1.0
outer loop
vertex 6.8 -1.6 5.2
vertex 9.8 -3.4 5.2
vertex 9.8 -1.6 5.2
endloop
endfacet
facet normal 3.37430431948678e-018 1.75007607137391e-019 1.0
outer loop
vertex 2.3997355969941 -2.99987905181422 5.2
vertex 2.39213851998051 -2.6534889258198 5.2
vertex 2.38337637444112 -2.826959471508 5.2
endloop
endfacet
facet normal 3.37430431948678e-018 1.75007607137391e-019 1.0
outer loop
vertex 2.39213851998051 -2.6534889258198 5.2
vertex 2.3997355969941 -2.99987905181422 5.2
vertex 2.42583865538232 -2.4830978864729 5.2
endloop
endfacet
facet normal 3.37430431948678e-018 1.75007607137391e-019 1.0
outer loop
vertex 2.42583865538232 -2.4830978864729 5.2
vertex 2.3997355969941 -2.99987905181422 5.2
vertex 2.3997355969941 -4.79975810362844 5.2
endloop
endfacet
facet normal 3.37430431948678e-018 1.75007607137391e-019 1.0
outer loop
vertex 2.42583865538232 -2.4830978864729 5.2
vertex 2.3997355969941 -4.79975810362844 5.2
vertex 4.8 -4.79975810362844 5.2
endloop
endfacet
facet normal 3.37430431948678e-018 1.75007607137391e-019 1.0
outer loop
vertex 2.42583865538232 -2.4830978864729 5.2
vertex 4.8 -4.79975810362844 5.2
vertex 2.48377148864344 -2.31935237585916 5.2
endloop
endfacet
facet normal 3.37430431948678e-018 1.75007607137391e-019 1.0
outer loop
vertex 2.48377148864344 -2.31935237585916 5.2
vertex 4.8 -4.79975810362844 5.2
vertex 2.56472457466452 -2.16567933567487 5.2
endloop
endfacet
facet normal 3.37430431948678e-018 1.75007607137391e-019 1.0
outer loop
vertex 2.56472457466452 -2.16567933567487 5.2
vertex 4.8 -4.79975810362844 5.2
vertex 2.66700368986109 -2.02529490630173 5.2
endloop
endfacet
facet normal 3.37430431948678e-018 1.75007607137391e-019 1.0
outer loop
vertex 2.66700368986109 -2.02529490630173 5.2
vertex 4.8 -4.79975810362844 5.2
vertex 2.78846828965752 -1.90113711793504 5.2
endloop
endfacet
facet normal 3.37430431948678e-018 1.75007607137391e-019 1.0
outer loop
vertex 2.78846828965752 -1.90113711793504 5.2
vertex 4.8 -4.79975810362844 5.2
vertex 2.92657630679283 -1.79580440213045 5.2
endloop
endfacet
facet normal 3.37430431948678e-018 1.75007607137391e-019 1.0
outer loop
vertex 2.92657630679283 -1.79580440213045 5.2
vertex 4.8 -4.79975810362844 5.2
vertex 3.07843735287871 -1.71150121062788 5.2
endloop
endfacet
facet normal 3.37430431948678e-018 1.75007607137391e-019 1.0
outer loop
vertex 3.07843735287871 -1.71150121062788 5.2
vertex 4.8 -4.79975810362844 5.2
vertex 3.2408732097831 -1.64999187956703 5.2
endloop
endfacet
facet normal 3.37430431948678e-018 1.75007607137391e-019 1.0
outer loop
vertex 3.2408732097831 -1.64999187956703 5.2
vertex 4.8 -4.79975810362844 5.2
vertex 3.41048434484759 -1.61256370464557 5.2
endloop
endfacet
facet normal 3.37430431948678e-018 1.75007607137391e-019 1.0
outer loop
vertex 3.41048434484759 -1.61256370464557 5.2
vertex 4.8 -4.79975810362844 5.2
vertex 3.58372105787746 -1.6 5.2
endloop
endfacet
facet normal 3.37430431948678e-018 1.75007607137391e-019 1.0
outer loop
vertex 3.58372105787746 -1.6 5.2
vertex 4.8 -4.79975810362844 5.2
vertex 4.8 -1.6 5.2
endloop
endfacet
facet normal 3.37430431948678e-018 1.75007607137391e-019 1.0
outer loop
vertex 4.8 -1.6 5.2
vertex 4.8 -4.79975810362844 5.2
vertex 4.8 -3.4 5.2
endloop
endfacet
facet normal 3.37430431948678e-018 1.75007607137391e-019 1.0
outer loop
vertex 4.8 -1.6 5.2
vertex 4.8 -3.4 5.2
vertex 6.8 -3.4 5.2
endloop
endfacet
facet normal 3.37430431948678e-018 1.75007607137391e-019 1.0
outer loop
vertex 4.8 -1.6 5.2
vertex 6.8 -3.4 5.2
vertex 6.8 -1.6 5.2
endloop
endfacet
facet normal 3.37430431948678e-018 1.75007607137391e-019 1.0
outer loop
vertex 9.8 1.8 5.2
vertex 4.8 3.4 5.2
vertex 3.42784168535965 1.81030516863702 5.2
endloop
endfacet
facet normal 3.37430431948678e-018 1.75007607137391e-019 1.0
outer loop
vertex 4.8 3.4 5.2
vertex 9.8 1.8 5.2
vertex 6.8 3.4 5.2
endloop
endfacet
facet normal 3.37430431948678e-018 1.75007607137391e-019 1.0
outer loop
vertex 6.8 3.4 5.2
vertex 9.8 1.8 5.2
vertex 6.8 4.8 5.2
endloop
endfacet
facet normal 3.37430431948678e-018 1.75007607137391e-019 1.0
outer loop
vertex 6.8 4.8 5.2
vertex 9.8 1.8 5.2
vertex 9.8 3.4 5.2
endloop
endfacet
facet normal 3.37430431948678e-018 1.75007607137391e-019 1.0
outer loop
vertex -2.23659154221714 -1.24217916461237 5.2
vertex -2.23659154221714 1.24242106098393 5.2
vertex -2.40014345482012 0.000120948185780434 5.2
endloop
endfacet
facet normal 3.37430431948678e-018 1.75007607137391e-019 1.0
outer loop
vertex -2.23659154221714 1.24242106098393 5.2
vertex -2.23659154221714 -1.24217916461237 5.2
vertex -1.75708159696978 2.40006047409289 5.2
endloop
endfacet
facet normal 3.37430431948678e-018 1.75007607137391e-019 1.0
outer loop
vertex -1.75708159696978 2.40006047409289 5.2
vertex -2.23659154221714 -1.24217916461237 5.2
vertex -1.75708159696978 -2.39981857772133 5.2
endloop
endfacet
facet normal 3.37430431948678e-018 1.75007607137391e-019 1.0
outer loop
vertex -1.75708159696978 2.40006047409289 5.2
vertex -1.75708159696978 -2.39981857772133 5.2
vertex -0.994291429418994 3.39414797459887 5.2
endloop
endfacet
facet normal 3.37430431948678e-018 1.75007607137391e-019 1.0
outer loop
vertex -0.994291429418994 3.39414797459887 5.2
vertex -1.75708159696978 -2.39981857772133 5.2
vertex -0.994291429418993 -3.39390607822731 5.2
endloop
endfacet
facet normal 3.37430431948678e-018 1.75007607137391e-019 1.0
outer loop
vertex -0.994291429418994 3.39414797459887 5.2
vertex -0.994291429418993 -3.39390607822731 5.2
vertex -0.600264403005904 0.000120948185781884 5.2
endloop
endfacet
facet normal 3.37430431948678e-018 1.75007607137391e-019 1.0
outer loop
vertex -0.994291429418994 3.39414797459887 5.2
vertex -0.600264403005904 0.000120948185781884 5.2
vertex -0.498041881873109 0.776578083493343 5.2
endloop
endfacet
facet normal 3.37430431948678e-018 1.75007607137391e-019 1.0
outer loop
vertex -0.994291429418994 3.39414797459887 5.2
vertex -0.498041881873109 0.776578083493343 5.2
vertex -0.000203928913012291 4.15693814214966 5.2
endloop
endfacet
facet normal 3.37430431948678e-018 1.75007607137391e-019 1.0
outer loop
vertex -0.000203928913012291 4.15693814214966 5.2
vertex -0.498041881873109 0.776578083493343 5.2
vertex -0.198340614359221 1.50012094818578 5.2
endloop
endfacet
facet normal 3.37430431948678e-018 1.75007607137391e-019 1.0
outer loop
vertex -0.000203928913012291 4.15693814214966 5.2
vertex -0.198340614359221 1.50012094818578 5.2
vertex 0.278415253434453 2.12144129174542 5.2
endloop
endfacet
facet normal 3.37430431948678e-018 1.75007607137391e-019 1.0
outer loop
vertex -0.000203928913012291 4.15693814214966 5.2
vertex 0.278415253434453 2.12144129174542 5.2
vertex 1.15743548419595 4.63644808739702 5.2
endloop
endfacet
facet normal 3.37430431948678e-018 1.75007607137391e-019 1.0
outer loop
vertex 1.15743548419595 4.63644808739702 5.2
vertex 0.278415253434453 2.12144129174542 5.2
vertex 0.899735596994095 2.5981971595391 5.2
endloop
endfacet
facet normal 3.37430431948678e-018 1.75007607137391e-019 1.0
outer loop
vertex 1.15743548419595 4.63644808739702 5.2
vertex 0.899735596994095 2.5981971595391 5.2
vertex 1.62327846168653 2.89789842705299 5.2
endloop
endfacet
facet normal 3.37430431948678e-018 1.75007607137391e-019 1.0
outer loop
vertex 1.15743548419595 4.63644808739702 5.2
vertex 1.62327846168653 2.89789842705299 5.2
vertex 2.3997355969941 4.8 5.2
endloop
endfacet
facet normal 3.37430431948678e-018 1.75007607137391e-019 1.0
outer loop
vertex 2.3997355969941 4.8 5.2
vertex 1.62327846168653 2.89789842705299 5.2
vertex 2.3997355969941 3.00012094818578 5.2
endloop
endfacet
facet normal 3.37430431948678e-018 1.75007607137391e-019 1.0
outer loop
vertex 2.3997355969941 4.8 5.2
vertex 2.3997355969941 3.00012094818578 5.2
vertex 2.43659012932357 2.69054824500775 5.2
endloop
endfacet
facet normal 3.37430431948678e-018 1.75007607137391e-019 1.0
outer loop
vertex 2.3997355969941 4.8 5.2
vertex 2.43659012932357 2.69054824500775 5.2
vertex 4.8 4.8 5.2
endloop
endfacet
facet normal 3.37430431948678e-018 1.75007607137391e-019 1.0
outer loop
vertex 4.8 4.8 5.2
vertex 2.43659012932357 2.69054824500775 5.2
vertex 2.48521726393887 2.54208957380163 5.2
endloop
endfacet
facet normal 3.37430431948678e-018 1.75007607137391e-019 1.0
outer loop
vertex 4.8 4.8 5.2
vertex 2.48521726393887 2.54208957380163 5.2
vertex 2.55296495402842 2.40132442980386 5.2
endloop
endfacet
facet normal 3.37430431948678e-018 1.75007607137391e-019 1.0
outer loop
vertex 4.8 4.8 5.2
vertex 2.55296495402842 2.40132442980386 5.2
vertex 2.63865398339493 2.27070297091058 5.2
endloop
endfacet
facet normal 3.37430431948678e-018 1.75007607137391e-019 1.0
outer loop
vertex 4.8 4.8 5.2
vertex 2.63865398339493 2.27070297091058 5.2
vertex 2.74079284891517 2.15249879404944 5.2
endloop
endfacet
facet normal 3.37430431948678e-018 1.75007607137391e-019 1.0
outer loop
vertex 4.8 4.8 5.2
vertex 2.74079284891517 2.15249879404944 5.2
vertex 2.85760372164121 2.04876936095467 5.2
endloop
endfacet
facet normal 3.37430431948678e-018 1.75007607137391e-019 1.0
outer loop
vertex 4.8 4.8 5.2
vertex 2.85760372164121 2.04876936095467 5.2
vertex 2.98705339168861 1.96132018599114 5.2
endloop
endfacet
facet normal 3.37430431948678e-018 1.75007607137391e-019 1.0
outer loop
vertex 4.8 4.8 5.2
vertex 2.98705339168861 1.96132018599114 5.2
vertex 3.12688865828471 1.89167340937384 5.2
endloop
endfacet
facet normal 3.37430431948678e-018 1.75007607137391e-019 1.0
outer loop
vertex 4.8 4.8 5.2
vertex 3.12688865828471 1.89167340937384 5.2
vertex 3.2746755489781 1.84104130279746 5.2
endloop
endfacet
facet normal 3.37430431948678e-018 1.75007607137391e-019 1.0
outer loop
vertex 4.8 4.8 5.2
vertex 3.2746755489781 1.84104130279746 5.2
vertex 3.42784168535965 1.81030516863702 5.2
endloop
endfacet
facet normal 3.37430431948678e-018 1.75007607137391e-019 1.0
outer loop
vertex 4.8 4.8 5.2
vertex 3.42784168535965 1.81030516863702 5.2
vertex 4.8 3.4 5.2
endloop
endfacet
facet normal -0.258819045102521 -0.965925826289068 0.0
outer loop
vertex 1.15743548419595 -4.63620619102546 5.2
vertex -0.000203928913012291 -4.15669624577809 0.0
vertex 1.15743548419595 -4.63620619102546 0.0
endloop
endfacet
facet normal -0.5 -0.866025403784439 0.0
outer loop
vertex -0.000203928913012291 -4.15669624577809 0.0
vertex 1.15743548419595 -4.63620619102546 5.2
vertex -0.000203928913012291 -4.15669624577809 5.2
endloop
endfacet
facet normal -0.5 -0.866025403784439 0.0
outer loop
vertex -0.000203928913012291 -4.15669624577809 5.2
vertex -0.994291429418993 -3.39390607822731 0.0
vertex -0.000203928913012291 -4.15669624577809 0.0
endloop
endfacet
facet normal -0.707106781186547 -0.707106781186548 0.0
outer loop
vertex -0.994291429418993 -3.39390607822731 0.0
vertex -0.000203928913012291 -4.15669624577809 5.2
vertex -0.994291429418993 -3.39390607822731 5.2
endloop
endfacet
facet normal -0.866025403784439 -0.5 0.0
outer loop
vertex -1.75708159696978 -2.39981857772133 5.2
vertex -0.994291429418993 -3.39390607822731 0.0
vertex -0.994291429418993 -3.39390607822731 5.2
endloop
endfacet
facet normal -0.707106781186547 -0.707106781186548 0.0
outer loop
vertex -0.994291429418993 -3.39390607822731 0.0
vertex -1.75708159696978 -2.39981857772133 5.2
vertex -1.75708159696978 -2.39981857772133 0.0
endloop
endfacet
facet normal -0.965925826289068 -0.258819045102521 0.0
outer loop
vertex -2.23659154221714 -1.24217916461237 5.2
vertex -1.75708159696978 -2.39981857772133 0.0
vertex -1.75708159696978 -2.39981857772133 5.2
endloop
endfacet
facet normal -0.866025403784439 -0.5 0.0
outer loop
vertex -1.75708159696978 -2.39981857772133 0.0
vertex -2.23659154221714 -1.24217916461237 5.2
vertex -2.23659154221714 -1.24217916461237 0.0
endloop
endfacet
facet normal -1.0 -2.76244406765054e-016 0.0
outer loop
vertex -2.40014345482012 0.000120948185780434 5.2
vertex -2.23659154221714 -1.24217916461237 0.0
vertex -2.23659154221714 -1.24217916461237 5.2
endloop
endfacet
facet normal -0.965925826289068 -0.258819045102521 0.0
outer loop
vertex -2.23659154221714 -1.24217916461237 0.0
vertex -2.40014345482012 0.000120948185780434 5.2
vertex -2.40014345482012 0.000120948185780434 0.0
endloop
endfacet
facet normal -0.965925826289068 0.258819045102521 0.0
outer loop
vertex -2.23659154221714 1.24242106098393 5.2
vertex -2.40014345482012 0.000120948185780434 0.0
vertex -2.40014345482012 0.000120948185780434 5.2
endloop
endfacet
facet normal -1.0 -2.76244406765054e-016 0.0
outer loop
vertex -2.40014345482012 0.000120948185780434 0.0
vertex -2.23659154221714 1.24242106098393 5.2
vertex -2.23659154221714 1.24242106098393 0.0
endloop
endfacet
facet normal -0.866025403784439 0.5 0.0
outer loop
vertex -1.75708159696978 2.40006047409289 5.2
vertex -2.23659154221714 1.24242106098393 0.0
vertex -2.23659154221714 1.24242106098393 5.2
endloop
endfacet
facet normal -0.965925826289068 0.258819045102521 0.0
outer loop
vertex -2.23659154221714 1.24242106098393 0.0
vertex -1.75708159696978 2.40006047409289 5.2
vertex -1.75708159696978 2.40006047409289 0.0
endloop
endfacet
facet normal -0.707106781186548 0.707106781186547 0.0
outer loop
vertex -0.994291429418994 3.39414797459887 5.2
vertex -1.75708159696978 2.40006047409289 0.0
vertex -1.75708159696978 2.40006047409289 5.2
endloop
endfacet
facet normal -0.866025403784439 0.5 0.0
outer loop
vertex -1.75708159696978 2.40006047409289 0.0
vertex -0.994291429418994 3.39414797459887 5.2
vertex -0.994291429418994 3.39414797459887 0.0
endloop
endfacet
facet normal -0.707106781186548 0.707106781186547 0.0
outer loop
vertex -0.994291429418994 3.39414797459887 5.2
vertex -0.000203928913012291 4.15693814214966 0.0
vertex -0.994291429418994 3.39414797459887 0.0
endloop
endfacet
facet normal -0.5 0.866025403784439 0.0
outer loop
vertex -0.000203928913012291 4.15693814214966 0.0
vertex -0.994291429418994 3.39414797459887 5.2
vertex -0.000203928913012291 4.15693814214966 5.2
endloop
endfacet
facet normal -0.5 0.866025403784439 0.0
outer loop
vertex -0.000203928913012291 4.15693814214966 5.2
vertex 1.15743548419595 4.63644808739702 0.0
vertex -0.000203928913012291 4.15693814214966 0.0
endloop
endfacet
facet normal -0.258819045102521 0.965925826289068 0.0
outer loop
vertex 1.15743548419595 4.63644808739702 0.0
vertex -0.000203928913012291 4.15693814214966 5.2
vertex 1.15743548419595 4.63644808739702 5.2
endloop
endfacet
facet normal -0.258819045102521 0.965925826289068 0.0
outer loop
vertex 1.15743548419595 4.63644808739702 5.2
vertex 2.3997355969941 4.8 0.0
vertex 1.15743548419595 4.63644808739702 0.0
endloop
endfacet
facet normal -0.130526192220052 0.99144486137381 0.0
outer loop
vertex 2.3997355969941 4.8 0.0
vertex 1.15743548419595 4.63644808739702 5.2
vertex 2.3997355969941 4.8 5.2
endloop
endfacet
facet normal -0.0 1.0 0.0
outer loop
vertex 2.3997355969941 4.8 5.2
vertex 4.8 4.8 0.0
vertex 2.3997355969941 4.8 0.0
endloop
endfacet
facet normal -0.0 1.0 0.0
outer loop
vertex 4.8 4.8 0.0
vertex 2.3997355969941 4.8 5.2
vertex 4.8 4.8 5.2
endloop
endfacet
facet normal 1.0 0.0 0.0
outer loop
vertex 4.8 4.8 0.0
vertex 4.8 3.4 5.2
vertex 4.8 3.4 0.0
endloop
endfacet
facet normal 1.0 0.0 0.0
outer loop
vertex 4.8 3.4 5.2
vertex 4.8 4.8 0.0
vertex 4.8 4.8 5.2
endloop
endfacet
facet normal -0.0 1.0 0.0
outer loop
vertex 4.8 3.4 5.2
vertex 6.8 3.4 0.0
vertex 4.8 3.4 0.0
endloop
endfacet
facet normal -0.0 1.0 0.0
outer loop
vertex 6.8 3.4 0.0
vertex 4.8 3.4 5.2
vertex 6.8 3.4 5.2
endloop
endfacet
facet normal -1.0 0.0 0.0
outer loop
vertex 6.8 4.8 5.2
vertex 6.8 3.4 0.0
vertex 6.8 3.4 5.2
endloop
endfacet
facet normal -1.0 0.0 0.0
outer loop
vertex 6.8 3.4 0.0
vertex 6.8 4.8 5.2
vertex 6.8 4.8 0.0
endloop
endfacet
facet normal 0.422885465331124 0.906183139995266 0.0
outer loop
vertex 6.8 4.8 5.2
vertex 9.8 3.4 0.0
vertex 6.8 4.8 0.0
endloop
endfacet
facet normal 0.422885465331124 0.906183139995266 0.0
outer loop
vertex 9.8 3.4 0.0
vertex 6.8 4.8 5.2
vertex 9.8 3.4 5.2
endloop
endfacet
facet normal 1.0 0.0 0.0
outer loop
vertex 9.8 3.4 0.0
vertex 9.8 1.8 5.2
vertex 9.8 1.8 0.0
endloop
endfacet
facet normal 1.0 0.0 0.0
outer loop
vertex 9.8 1.8 5.2
vertex 9.8 3.4 0.0
vertex 9.8 3.4 5.2
endloop
endfacet
facet normal -1.79015459850467e-016 1.0 1.21095281601401e-018
outer loop
vertex 4.8 -1.6 5.2
vertex 6.8 -1.6 0.0
vertex 4.8 -1.6 0.0
endloop
endfacet
facet normal -1.79015459850467e-016 1.0 1.21095281601401e-018
outer loop
vertex 6.8 -1.6 0.0
vertex 4.8 -1.6 5.2
vertex 6.8 -1.6 5.2
endloop
endfacet
facet normal -0.0 1.0 0.0
outer loop
vertex 6.8 -1.6 5.2
vertex 9.8 -1.6 0.0
vertex 6.8 -1.6 0.0
endloop
endfacet
facet normal -0.0 1.0 0.0
outer loop
vertex 9.8 -1.6 0.0
vertex 6.8 -1.6 5.2
vertex 9.8 -1.6 5.2
endloop
endfacet
facet normal 1.0 0.0 0.0
outer loop
vertex 9.8 -1.6 0.0
vertex 9.8 -3.4 5.2
vertex 9.8 -3.4 0.0
endloop
endfacet
facet normal 1.0 0.0 0.0
outer loop
vertex 9.8 -3.4 5.2
vertex 9.8 -1.6 0.0
vertex 9.8 -1.6 5.2
endloop
endfacet
facet normal 0.422825461889545 -0.906211139182196 0.0
outer loop
vertex 9.8 -3.4 5.2
vertex 6.8 -4.79975810362844 0.0
vertex 9.8 -3.4 0.0
endloop
endfacet
facet normal 0.422825461889545 -0.906211139182196 0.0
outer loop
vertex 6.8 -4.79975810362844 0.0
vertex 9.8 -3.4 5.2
vertex 6.8 -4.79975810362844 5.2
endloop
endfacet
facet normal -1.0 0.0 0.0
outer loop
vertex 6.8 -3.4 5.2
vertex 6.8 -4.79975810362844 0.0
vertex 6.8 -4.79975810362844 5.2
endloop
endfacet
facet normal -1.0 0.0 0.0
outer loop
vertex 6.8 -4.79975810362844 0.0
vertex 6.8 -3.4 5.2
vertex 6.8 -3.4 0.0
endloop
endfacet
facet normal -0.0 -1.0 -0.0
outer loop
vertex 6.8 -3.4 5.2
vertex 4.8 -3.4 0.0
vertex 6.8 -3.4 0.0
endloop
endfacet
facet normal -0.0 -1.0 -0.0
outer loop
vertex 4.8 -3.4 0.0
vertex 6.8 -3.4 5.2
vertex 4.8 -3.4 5.2
endloop
endfacet
facet normal 1.0 0.0 0.0
outer loop
vertex 4.8 -3.4 0.0
vertex 4.8 -4.79975810362844 5.2
vertex 4.8 -4.79975810362844 0.0
endloop
endfacet
facet normal 1.0 0.0 0.0
outer loop
vertex 4.8 -4.79975810362844 5.2
vertex 4.8 -3.4 0.0
vertex 4.8 -3.4 5.2
endloop
endfacet
facet normal -0.0 -1.0 -0.0
outer loop
vertex 4.8 -4.79975810362844 5.2
vertex 2.3997355969941 -4.79975810362844 0.0
vertex 4.8 -4.79975810362844 0.0
endloop
endfacet
facet normal -0.0 -1.0 -0.0
outer loop
vertex 2.3997355969941 -4.79975810362844 0.0
vertex 4.8 -4.79975810362844 5.2
vertex 2.3997355969941 -4.79975810362844 5.2
endloop
endfacet
facet normal -0.130526192220052 -0.99144486137381 -0.0
outer loop
vertex 2.3997355969941 -4.79975810362844 5.2
vertex 1.15743548419595 -4.63620619102546 0.0
vertex 2.3997355969941 -4.79975810362844 0.0
endloop
endfacet
facet normal -0.258819045102521 -0.965925826289068 0.0
outer loop
vertex 1.15743548419595 -4.63620619102546 0.0
vertex 2.3997355969941 -4.79975810362844 5.2
vertex 1.15743548419595 -4.63620619102546 5.2
endloop
endfacet
facet normal -0.00161721580854868 -0.999998692305659 2.78060681502181e-020
outer loop
vertex 9.8 1.8 5.2
vertex 3.42784168535965 1.81030516863702 7.04991620636974e-016
vertex 9.8 1.8 0.0
endloop
endfacet
facet normal -0.00161721580854868 -0.999998692305659 2.78060681502181e-020
outer loop
vertex 3.42784168535965 1.81030516863702 7.04991620636974e-016
vertex 9.8 1.8 5.2
vertex 3.42784168535965 1.81030516863702 5.2
endloop
endfacet
facet normal -0.007231263613993 0.999973646427803 -0.000644419450838624
outer loop
vertex 3.41048434484759 -1.61256370464557 7.04991620636974e-016
vertex 4.8 -1.6 5.2
vertex 4.8 -1.6 0.0
endloop
endfacet
facet normal -0.007231263613993 0.999973646427803 -0.000644419450838624
outer loop
vertex 4.8 -1.6 5.2
vertex 3.41048434484759 -1.61256370464557 7.04991620636974e-016
vertex 3.41048434484759 -1.61256370464557 5.2
endloop
endfacet
facet normal -0.007231263613993 0.999973646427803 -0.000644419450838624
outer loop
vertex 4.8 -1.6 5.2
vertex 3.41048434484759 -1.61256370464557 5.2
vertex 3.58372105787746 -1.6 5.2
endloop
endfacet
facet normal 0.258819045102521 0.965925826289068 -4.21722507296712e-017
outer loop
vertex 1.62327846168653 -2.89765653068142 5.2
vertex 2.3997355969941 -2.99987905181422 7.04991620636974e-016
vertex 1.62327846168653 -2.89765653068142 7.04991620636974e-016
endloop
endfacet
facet normal 0.130526192220051 0.99144486137381 -1.80381244915016e-017
outer loop
vertex 2.3997355969941 -2.99987905181422 7.04991620636974e-016
vertex 1.62327846168653 -2.89765653068142 5.2
vertex 2.3997355969941 -2.99987905181422 5.2
endloop
endfacet
facet normal -0.99555467440323 -0.0941854037198897 1.85409699176709e-016
outer loop
vertex 2.38337637444112 -2.826959471508 5.2
vertex 2.3997355969941 -2.99987905181422 7.04991620636974e-016
vertex 2.3997355969941 -2.99987905181422 5.2
endloop
endfacet
facet normal -0.99555467440323 -0.0941854037198897 1.85409699176709e-016
outer loop
vertex 2.3997355969941 -2.99987905181422 7.04991620636974e-016
vertex 2.38337637444112 -2.826959471508 5.2
vertex 2.38337637444112 -2.826959471508 7.04991620636974e-016
endloop
endfacet
facet normal -0.998726762610349 0.0504465424568673 1.86928698660322e-016
outer loop
vertex 2.39213851998051 -2.6534889258198 5.2
vertex 2.38337637444112 -2.826959471508 7.04991620636974e-016
vertex 2.38337637444112 -2.826959471508 5.2
endloop
endfacet
facet normal -0.998726762610349 0.0504465424568673 1.86928698660322e-016
outer loop
vertex 2.38337637444112 -2.826959471508 7.04991620636974e-016
vertex 2.39213851998051 -2.6534889258198 5.2
vertex 2.39213851998051 -2.6534889258198 0.0
endloop
endfacet
facet normal -0.980997035719321 0.194022720086861 1.84535567977599e-016
outer loop
vertex 2.42583865538232 -2.4830978864729 5.2
vertex 2.39213851998051 -2.6534889258198 0.0
vertex 2.39213851998051 -2.6534889258198 5.2
endloop
endfacet
facet normal -0.980997035719321 0.194022720086861 1.84535567977599e-016
outer loop
vertex 2.39213851998051 -2.6534889258198 0.0
vertex 2.42583865538232 -2.4830978864729 5.2
vertex 2.42583865538232 -2.4830978864729 0.0
endloop
endfacet
facet normal -0.94273654964563 0.333538300592681 1.78280391673091e-016
outer loop
vertex 2.48377148864344 -2.31935237585916 5.2
vertex 2.42583865538232 -2.4830978864729 0.0
vertex 2.42583865538232 -2.4830978864729 5.2
endloop
endfacet
facet normal -0.94273654964563 0.333538300592681 1.78280391673091e-016
outer loop
vertex 2.42583865538232 -2.4830978864729 0.0
vertex 2.48377148864344 -2.31935237585916 5.2
vertex 2.48377148864344 -2.31935237585916 0.0
endloop
endfacet
facet normal -0.884746037518111 0.466073437449508 1.68294080966381e-016
outer loop
vertex 2.56472457466452 -2.16567933567487 5.2
vertex 2.48377148864344 -2.31935237585916 0.0
vertex 2.48377148864344 -2.31935237585916 5.2
endloop
endfacet
facet normal -0.884746037518111 0.466073437449508 1.68294080966381e-016
outer loop
vertex 2.48377148864344 -2.31935237585916 0.0
vertex 2.56472457466452 -2.16567933567487 5.2
vertex 2.56472457466452 -2.16567933567487 0.0
endloop
endfacet
facet normal -0.808239151566097 0.58885437408218 1.54785633981598e-016
outer loop
vertex 2.66700368986109 -2.02529490630173 5.2
vertex 2.56472457466452 -2.16567933567487 0.0
vertex 2.56472457466452 -2.16567933567487 5.2
endloop
endfacet
facet normal -0.808239151566097 0.58885437408218 1.54785633981598e-016
outer loop
vertex 2.56472457466452 -2.16567933567487 0.0
vertex 2.66700368986109 -2.02529490630173 5.2
vertex 2.66700368986109 -2.02529490630173 0.0
endloop
endfacet
facet normal -0.714817063244855 0.699311494324239 1.38037761738121e-016
outer loop
vertex 2.78846828965752 -1.90113711793504 5.2
vertex 2.66700368986109 -2.02529490630173 0.0
vertex 2.66700368986109 -2.02529490630173 5.2
endloop
endfacet
facet normal -0.714817063244855 0.699311494324239 1.38037761738121e-016
outer loop
vertex 2.66700368986109 -2.02529490630173 0.0
vertex 2.78846828965752 -1.90113711793504 5.2
vertex 2.78846828965752 -1.90113711793504 0.0
endloop
endfacet
facet normal -0.606434953179637 0.795133100532239 1.18400971443755e-016
outer loop
vertex 2.78846828965752 -1.90113711793504 5.2
vertex 2.92657630679283 -1.79580440213045 0.0
vertex 2.78846828965752 -1.90113711793504 0.0
endloop
endfacet
facet normal -0.606434953179637 0.795133100532239 1.18400971443755e-016
outer loop
vertex 2.92657630679283 -1.79580440213045 0.0
vertex 2.78846828965752 -1.90113711793504 5.2
vertex 2.92657630679283 -1.79580440213045 5.2
endloop
endfacet
facet normal -0.485361092242253 0.874313793862025 9.62862309179463e-017
outer loop
vertex 2.92657630679283 -1.79580440213045 5.2
vertex 3.07843735287871 -1.71150121062788 0.0
vertex 2.92657630679283 -1.79580440213045 0.0
endloop
endfacet
facet normal -0.485361092242253 0.874313793862025 9.62862309179463e-017
outer loop
vertex 3.07843735287871 -1.71150121062788 0.0
vertex 2.92657630679283 -1.79580440213045 5.2
vertex 3.07843735287871 -1.71150121062788 5.2
endloop
endfacet
facet normal -0.354129370130342 0.93519644418223 7.21563676673953e-017
outer loop
vertex 3.07843735287871 -1.71150121062788 5.2
vertex 3.2408732097831 -1.64999187956703 0.0
vertex 3.07843735287871 -1.71150121062788 0.0
endloop
endfacet
facet normal -0.354129370130342 0.93519644418223 7.21563676673953e-017
outer loop
vertex 3.2408732097831 -1.64999187956703 0.0
vertex 3.07843735287871 -1.71150121062788 5.2
vertex 3.2408732097831 -1.64999187956703 5.2
endloop
endfacet
facet normal -0.215486264953115 0.976506871259264 1.67582401237083e-019
outer loop
vertex 3.2408732097831 -1.64999187956703 5.2
vertex 3.41048434484759 -1.61256370464557 7.04991620636974e-016
vertex 3.2408732097831 -1.64999187956703 0.0
endloop
endfacet
facet normal -0.215486264953115 0.976506871259264 1.67582401237083e-019
outer loop
vertex 3.41048434484759 -1.61256370464557 7.04991620636974e-016
vertex 3.2408732097831 -1.64999187956703 5.2
vertex 3.41048434484759 -1.61256370464557 5.2
endloop
endfacet
facet normal -0.19674949043743 -0.980453791880378 1.29370338359701e-019
outer loop
vertex 3.42784168535965 1.81030516863702 7.04991620636974e-016
vertex 3.2746755489781 1.84104130279746 5.2
vertex 3.2746755489781 1.84104130279746 0.0
endloop
endfacet
facet normal -0.19674949043743 -0.980453791880378 1.29370338359701e-019
outer loop
vertex 3.2746755489781 1.84104130279746 5.2
vertex 3.42784168535965 1.81030516863702 7.04991620636974e-016
vertex 3.42784168535965 1.81030516863702 5.2
endloop
endfacet
facet normal -0.324108461938607 -0.946019928384064 5.44986441647017e-017
outer loop
vertex 3.2746755489781 1.84104130279746 5.2
vertex 3.12688865828471 1.89167340937384 0.0
vertex 3.2746755489781 1.84104130279746 0.0
endloop
endfacet
facet normal -0.324108461938607 -0.946019928384064 5.44986441647017e-017
outer loop
vertex 3.12688865828471 1.89167340937384 0.0
vertex 3.2746755489781 1.84104130279746 5.2
vertex 3.12688865828471 1.89167340937384 5.2
endloop
endfacet
facet normal -0.445826002012449 -0.89511964336037 7.75667736697524e-017
outer loop
vertex 3.12688865828471 1.89167340937384 5.2
vertex 2.98705339168861 1.96132018599114 0.0
vertex 3.12688865828471 1.89167340937384 0.0
endloop
endfacet
facet normal -0.445826002012449 -0.89511964336037 7.75667736697524e-017
outer loop
vertex 2.98705339168861 1.96132018599114 0.0
vertex 3.12688865828471 1.89167340937384 5.2
vertex 2.98705339168861 1.96132018599114 5.2
endloop
endfacet
facet normal -0.55978349532962 -0.828638907097991 9.92847760226759e-017
outer loop
vertex 2.98705339168861 1.96132018599114 5.2
vertex 2.85760372164121 2.04876936095467 0.0
vertex 2.98705339168861 1.96132018599114 0.0
endloop
endfacet
facet normal -0.55978349532962 -0.828638907097991 9.92847760226759e-017
outer loop
vertex 2.85760372164121 2.04876936095467 0.0
vertex 2.98705339168861 1.96132018599114 5.2
vertex 2.85760372164121 2.04876936095467 5.2
endloop
endfacet
facet normal -0.663997397923586 -0.74773488319772 1.19274627705418e-016
outer loop
vertex 2.85760372164121 2.04876936095467 5.2
vertex 2.74079284891517 2.15249879404944 0.0
vertex 2.85760372164121 2.04876936095467 0.0
endloop
endfacet
facet normal -0.663997397923586 -0.74773488319772 1.19274627705418e-016
outer loop
vertex 2.74079284891517 2.15249879404944 0.0
vertex 2.85760372164121 2.04876936095467 5.2
vertex 2.74079284891517 2.15249879404944 5.2
endloop
endfacet
facet normal -0.756653762754084 -0.653815786984443 1.37188385388034e-016
outer loop
vertex 2.63865398339493 2.27070297091058 5.2
vertex 2.74079284891517 2.15249879404944 0.0
vertex 2.74079284891517 2.15249879404944 5.2
endloop
endfacet
facet normal -0.756653762754084 -0.653815786984443 1.37188385388034e-016
outer loop
vertex 2.74079284891517 2.15249879404944 0.0
vertex 2.63865398339493 2.27070297091058 5.2
vertex 2.63865398339493 2.27070297091058 0.0
endloop
endfacet
facet normal -0.83613981326671 -0.548516374113217 1.52714242229788e-016
outer loop
vertex 2.55296495402842 2.40132442980386 5.2
vertex 2.63865398339493 2.27070297091058 0.0
vertex 2.63865398339493 2.27070297091058 5.2
endloop
endfacet
facet normal -0.83613981326671 -0.548516374113217 1.52714242229788e-016
outer loop
vertex 2.63865398339493 2.27070297091058 0.0
vertex 2.55296495402842 2.40132442980386 5.2
vertex 2.55296495402842 2.40132442980386 0.0
endloop
endfacet
facet normal -0.901072015379342 -0.433669486014649 1.65581955188584e-016
outer loop
vertex 2.48521726393887 2.54208957380163 5.2
vertex 2.55296495402842 2.40132442980386 0.0
vertex 2.55296495402842 2.40132442980386 5.2
endloop
endfacet
facet normal -0.901072015379342 -0.433669486014649 1.65581955188584e-016
outer loop
vertex 2.55296495402842 2.40132442980386 0.0
vertex 2.48521726393887 2.54208957380163 5.2
vertex 2.48521726393887 2.54208957380163 0.0
endloop
endfacet
facet normal -0.950320159274398 -0.311274147459572 1.75567548870971e-016
outer loop
vertex 2.43659012932357 2.69054824500775 5.2
vertex 2.48521726393887 2.54208957380163 0.0
vertex 2.48521726393887 2.54208957380163 5.2
endloop
endfacet
facet normal -0.950320159274398 -0.311274147459572 1.75567548870971e-016
outer loop
vertex 2.48521726393887 2.54208957380163 0.0
vertex 2.43659012932357 2.69054824500775 5.2
vertex 2.43659012932357 2.69054824500775 7.04991620636974e-016
endloop
endfacet
facet normal -0.992988033559964 -0.118214911101413 1.84776238689356e-016
outer loop
vertex 2.3997355969941 3.00012094818578 5.2
vertex 2.43659012932357 2.69054824500775 7.04991620636974e-016
vertex 2.43659012932357 2.69054824500775 5.2
endloop
endfacet
facet normal -0.992988033559964 -0.118214911101413 1.84776238689356e-016
outer loop
vertex 2.43659012932357 2.69054824500775 7.04991620636974e-016
vertex 2.3997355969941 3.00012094818578 5.2
vertex 2.3997355969941 3.00012094818578 7.04991620636974e-016
endloop
endfacet
facet normal 0.130526192220052 -0.99144486137381 -3.07378174571819e-017
outer loop
vertex 2.3997355969941 3.00012094818578 5.2
vertex 1.62327846168653 2.89789842705299 7.04991620636974e-016
vertex 2.3997355969941 3.00012094818578 7.04991620636974e-016
endloop
endfacet
facet normal 0.258819045102521 -0.965925826289068 -5.45450632777077e-017
outer loop
vertex 1.62327846168653 2.89789842705299 7.04991620636974e-016
vertex 2.3997355969941 3.00012094818578 5.2
vertex 1.62327846168653 2.89789842705299 5.2
endloop
endfacet
facet normal 0.258819045102521 -0.965925826289068 -5.45450632777077e-017
outer loop
vertex 1.62327846168653 2.89789842705299 5.2
vertex 0.899735596994095 2.5981971595391 7.04991620636974e-016
vertex 1.62327846168653 2.89789842705299 7.04991620636974e-016
endloop
endfacet
facet normal 0.5 -0.866025403784439 -9.89683315751881e-017
outer loop
vertex 0.899735596994095 2.5981971595391 7.04991620636974e-016
vertex 1.62327846168653 2.89789842705299 5.2
vertex 0.899735596994095 2.5981971595391 5.2
endloop
endfacet
facet normal 0.5 -0.866025403784439 -9.89683315751881e-017
outer loop
vertex 0.899735596994095 2.5981971595391 5.2
vertex 0.278415253434453 2.12144129174542 7.04991620636974e-016
vertex 0.899735596994095 2.5981971595391 7.04991620636974e-016
endloop
endfacet
facet normal 0.707106781186548 -0.707106781186547 -1.3664707162872e-016
outer loop
vertex 0.278415253434453 2.12144129174542 7.04991620636974e-016
vertex 0.899735596994095 2.5981971595391 5.2
vertex 0.278415253434453 2.12144129174542 5.2
endloop
endfacet
facet normal 0.707106781186548 -0.707106781186547 -1.3664707162872e-016
outer loop
vertex 0.278415253434453 2.12144129174542 7.04991620636974e-016
vertex -0.198340614359221 1.50012094818578 5.2
vertex -0.198340614359222 1.50012094818578 7.04991620636974e-016
endloop
endfacet
facet normal 0.866025403784439 -0.5 -1.65013539570718e-016
outer loop
vertex -0.198340614359221 1.50012094818578 5.2
vertex 0.278415253434453 2.12144129174542 7.04991620636974e-016
vertex 0.278415253434453 2.12144129174542 5.2
endloop
endfacet
facet normal 0.866025403784439 -0.5 -1.65013539570718e-016
outer loop
vertex -0.198340614359222 1.50012094818578 7.04991620636974e-016
vertex -0.498041881873109 0.776578083493343 5.2
vertex -0.498041881873109 0.776578083493343 7.04991620636974e-016
endloop
endfacet
facet normal 0.965925826289068 -0.258819045102521 -1.8213460748874e-016
outer loop
vertex -0.498041881873109 0.776578083493343 5.2
vertex -0.198340614359222 1.50012094818578 7.04991620636974e-016
vertex -0.198340614359221 1.50012094818578 5.2
endloop
endfacet
facet normal 1.0 2.22777747391173e-016 -1.86843502898074e-016
outer loop
vertex -0.600264403005904 0.000120948185781917 7.04991620636974e-016
vertex -0.498041881873109 0.776578083493343 5.2
vertex -0.600264403005904 0.000120948185781884 5.2
endloop
endfacet
facet normal 0.965925826289068 -0.258819045102521 -1.8213460748874e-016
outer loop
vertex -0.498041881873109 0.776578083493343 5.2
vertex -0.600264403005904 0.000120948185781917 7.04991620636974e-016
vertex -0.498041881873109 0.776578083493343 7.04991620636974e-016
endloop
endfacet
facet normal 1.0 2.22777747391173e-016 -1.86843502898074e-016
outer loop
vertex -0.600264403005904 0.000120948185781917 7.04991620636974e-016
vertex -0.498041881873108 -0.776336187121782 5.2
vertex -0.498041881873108 -0.776336187121782 7.04991620636974e-016
endloop
endfacet
facet normal 0.965925826289068 0.258819045102521 -1.78819322358392e-016
outer loop
vertex -0.498041881873108 -0.776336187121782 5.2
vertex -0.600264403005904 0.000120948185781917 7.04991620636974e-016
vertex -0.600264403005904 0.000120948185781884 5.2
endloop
endfacet
facet normal 0.965925826289068 0.258819045102521 -1.78819322358392e-016
outer loop
vertex -0.498041881873108 -0.776336187121782 7.04991620636974e-016
vertex -0.198340614359219 -1.49987905181422 5.2
vertex -0.198340614359221 -1.49987905181422 7.04991620636974e-016
endloop
endfacet
facet normal 0.866025403784439 0.5 -1.58608900512888e-016
outer loop
vertex -0.198340614359219 -1.49987905181422 5.2
vertex -0.498041881873108 -0.776336187121782 7.04991620636974e-016
vertex -0.498041881873108 -0.776336187121782 5.2
endloop
endfacet
facet normal 0.866025403784439 0.5 -1.58608900512888e-016
outer loop
vertex -0.198340614359221 -1.49987905181422 7.04991620636974e-016
vertex 0.278415253434454 -2.12119939537386 5.2
vertex 0.278415253434454 -2.12119939537386 7.04991620636974e-016
endloop
endfacet
facet normal 0.707106781186547 0.707106781186548 -1.27589544211032e-016
outer loop
vertex 0.278415253434454 -2.12119939537386 5.2
vertex -0.198340614359221 -1.49987905181422 7.04991620636974e-016
vertex -0.198340614359219 -1.49987905181422 5.2
endloop
endfacet
facet normal 0.707106781186547 0.707106781186548 -1.27589544211032e-016
outer loop
vertex 0.278415253434454 -2.12119939537386 5.2
vertex 0.899735596994097 -2.59795526316753 7.04991620636974e-016
vertex 0.278415253434454 -2.12119939537386 7.04991620636974e-016
endloop
endfacet
facet normal 0.5 0.866025403784439 -8.78751713228855e-017
outer loop
vertex 0.899735596994097 -2.59795526316753 7.04991620636974e-016
vertex 0.278415253434454 -2.12119939537386 5.2
vertex 0.899735596994097 -2.59795526316753 5.2
endloop
endfacet
facet normal 0.5 0.866025403784439 -8.78751713228855e-017
outer loop
vertex 0.899735596994097 -2.59795526316753 5.2
vertex 1.62327846168653 -2.89765653068142 7.04991620636974e-016
vertex 0.899735596994097 -2.59795526316753 7.04991620636974e-016
endloop
endfacet
facet normal 0.258819045102521 0.965925826289068 -4.21722507296712e-017
outer loop
vertex 1.62327846168653 -2.89765653068142 7.04991620636974e-016
vertex 0.899735596994097 -2.59795526316753 5.2
vertex 1.62327846168653 -2.89765653068142 5.2
endloop
endfacet
endsolid model
